<svg width="20" height="21" viewBox="0 0 20 21" fill="none" xmlns="http://www.w3.org/2000/svg">
<path d="M9.9998 12.1666C5.8248 12.1666 2.4248 14.9666 2.4248 18.4166C2.4248 18.65 2.60814 18.8333 2.84147 18.8333H17.1581C17.3915 18.8333 17.5748 18.65 17.5748 18.4166C17.5748 14.9666 14.1748 12.1666 9.9998 12.1666Z" fill="#2F4861"/>
<path d="M13.0913 3.54996C12.3413 2.69996 11.2247 2.16663 9.99967 2.16663C8.83301 2.16663 7.76634 2.64163 7.00801 3.42496C6.28301 4.17496 5.83301 5.20829 5.83301 6.33329C5.83301 7.11663 6.04967 7.84996 6.44134 8.47496C6.64967 8.83329 6.91634 9.15829 7.23301 9.42496C7.95801 10.0916 8.92467 10.5 9.99967 10.5C11.5247 10.5 12.8413 9.68329 13.5663 8.47496C13.783 8.11663 13.9497 7.71663 14.0413 7.29996C14.1247 6.99163 14.1663 6.66663 14.1663 6.33329C14.1663 5.26663 13.758 4.29163 13.0913 3.54996ZM11.558 7.09996H8.44134C8.00801 7.09996 7.65801 6.74996 7.65801 6.31663C7.65801 5.88329 8.00801 5.53329 8.44134 5.53329H11.558C11.9913 5.53329 12.3413 5.88329 12.3413 6.31663C12.3413 6.74996 11.9913 7.09996 11.558 7.09996Z" fill="#2F4861"/>
</svg>
