<svg width="20" height="21" viewBox="0 0 20 21" fill="none" xmlns="http://www.w3.org/2000/svg">
<path d="M13.6082 3.44104L13.6077 3.4412L6.08368 5.94089C6.08354 5.94094 6.08339 5.94098 6.08325 5.94103C4.85088 6.35322 3.96567 6.8183 3.39839 7.28733C2.82935 7.75782 2.63135 8.18589 2.63135 8.53649C2.63135 8.88695 2.8292 9.31441 3.39801 9.78378C3.96516 10.2518 4.85028 10.7154 6.08268 11.1255L13.6082 3.44104ZM13.6082 3.44104C15.2187 2.90421 16.2822 3.13327 16.8265 3.67834C17.3714 4.22397 17.6 5.29022 17.0672 6.90088C17.0672 6.90102 17.0671 6.90117 17.0671 6.90131L14.5591 14.4168L14.559 14.4172C14.1489 15.6496 13.6848 16.5347 13.2162 17.1019C12.7463 17.6707 12.318 17.8688 11.9668 17.8688C11.6155 17.8688 11.1872 17.6707 10.7173 17.1019C10.2487 16.5347 9.78465 15.6496 9.37452 14.4172L8.63295 12.1841L8.55394 11.9462L8.31601 11.8672L6.08298 11.1256L13.6082 3.44104ZM10.9037 10.9869L10.9046 10.986L14.0703 7.80359C14.0705 7.80345 14.0706 7.8033 14.0707 7.80316C14.5072 7.36619 14.5071 6.64994 14.0703 6.21315C13.6334 5.77622 12.9168 5.77622 12.4799 6.21315L12.479 6.21408L9.31321 9.39648C9.31299 9.39671 9.31276 9.39693 9.31254 9.39715C8.87628 9.83415 8.87651 10.5502 9.31321 10.9869C9.53692 11.2106 9.82464 11.3167 10.1084 11.3167C10.3922 11.3167 10.6799 11.2106 10.9037 10.9869Z" fill="#2F4861" stroke="#2F4861"/>
</svg>
