<svg width="24" height="24" viewBox="0 0 24 24" fill="none" xmlns="http://www.w3.org/2000/svg">
<path d="M7.0385 6.13499C7.0385 6.13499 6.733 5.97449 6.5345 5.06499C6.336 4.15549 8.0775 2.47499 8.0775 2.47499C8.0775 2.47499 8.6125 2.21549 10.8275 2.25399C13.0425 2.29249 13.5705 2.65099 14.029 3.20099C16.0275 5.59999 19.7815 10.375 20.6725 14.14C20.8755 14.701 21.1555 14.395 21.1555 15.3005C21.1555 15.9495 20.8005 16.1285 20.7055 16.2345C18.3985 18.8165 12.7455 19.672 10.224 19.672C7.7025 19.672 7.7185 19.0915 7.0155 19.0915C6.3125 19.0915 5.5335 21.414 3.7955 21.75C2.5005 19.1525 2.554 13.8965 3.7955 11.12C6.7175 11.12 7.1835 12.2425 8.3905 12.2425C9.422 12.2425 9.2615 11.601 10.889 11.601C12.5165 11.601 14.762 13.457 14.762 13.457C13.49 11.876 14.908 8.02299 12.161 5.45849C11.645 4.97749 11.4045 6.55849 9.8 6.55849C9.5635 6.69849 8.7125 6.80999 8.7125 6.80999" fill="#2F4861"/>
<path d="M7.0385 6.13499C7.0385 6.13499 6.733 5.97449 6.5345 5.06499C6.336 4.15549 8.0775 2.47499 8.0775 2.47499C8.0775 2.47499 8.6125 2.21549 10.8275 2.25399C13.0425 2.29249 13.5705 2.65099 14.029 3.20099C16.0275 5.59999 19.7815 10.375 20.6725 14.14C20.8755 14.701 21.1555 14.395 21.1555 15.3005C21.1555 15.9495 20.8005 16.1285 20.7055 16.2345C18.3985 18.8165 12.7455 19.672 10.224 19.672C7.7025 19.672 7.7185 19.0915 7.0155 19.0915C6.3125 19.0915 5.5335 21.414 3.7955 21.75C2.5005 19.1525 2.554 13.8965 3.7955 11.12C6.7175 11.12 7.1835 12.2425 8.3905 12.2425C9.422 12.2425 9.2615 11.601 10.889 11.601C12.5165 11.601 14.762 13.457 14.762 13.457C13.49 11.876 14.908 8.02299 12.161 5.45849C11.645 4.97749 11.4045 6.55849 9.8 6.55849C9.5635 6.69849 8.7125 6.80999 8.7125 6.80999" stroke="#2F4861" stroke-width="1.7" stroke-linecap="round" stroke-linejoin="round"/>
<path d="M15.442 14.112C15.889 14.622 16.8075 15.3135 17.6615 15.302M6.2365 14.7675C5.251 15.9515 5.121 17.235 4.128 17.77M7.7565 15.3025C9.239 16.8075 11.9205 16.7075 13.4865 15.1035M13.553 4.37C13.4845 4.6565 13.118 5.0975 12.848 5.172M9.365 3.224C9.1645 3.4645 8.19 4.7025 8.213 4.903C8.236 5.1035 8.093 6.106 8.3965 6.215C8.7 6.324 9.7315 6.14 9.72 5.705C9.7085 5.27 9.6225 5.046 9.6455 4.834C9.6685 4.622 10.356 3.574 10.356 3.574" stroke="#2F4861" stroke-linecap="round" stroke-linejoin="round"/>
<path d="M8.3735 3.0405C8.1215 3.3445 7.2905 4.519 7.302 5.0115C7.3135 5.504 7.365 5.8655 7.4795 5.9745C7.594 6.0835 8.2135 5.827 8.2135 5.827" stroke="#2F4861" stroke-linecap="round" stroke-linejoin="round"/>
<path d="M8.435 6.22599C8.435 6.22599 8.683 6.49599 8.7115 6.78799C8.74 7.07999 8.3335 7.36099 7.9615 7.46399C7.5895 7.56699 7.067 6.86799 7.067 6.60449C7.067 6.34099 7.4795 5.97449 7.4795 5.97449M10.789 4.83499C10.802 5.20549 10.8925 5.60699 10.573 5.72349C10.2535 5.83999 9.7005 5.81149 9.7005 5.81149" stroke="#2F4861" stroke-linecap="round" stroke-linejoin="round"/>
</svg>
